<mxfile host="65bd71144e">
    <diagram name="Page-1" id="HsKqo0RGVbrmmU3_X3im">
        <mxGraphModel dx="937" dy="161" grid="1" gridSize="10" guides="1" tooltips="1" connect="1" arrows="1" fold="1" page="1" pageScale="1" pageWidth="850" pageHeight="1100" math="0" shadow="0">
            <root>
                <mxCell id="0"/>
                <mxCell id="1" parent="0"/>
                <mxCell id="H91ZjJcy0l4oga8pl6Jm-12" style="edgeStyle=orthogonalEdgeStyle;rounded=0;orthogonalLoop=1;jettySize=auto;html=1;exitX=0.25;exitY=1;exitDx=0;exitDy=0;entryX=0.5;entryY=0;entryDx=0;entryDy=0;endArrow=none;endFill=0;" parent="1" source="H91ZjJcy0l4oga8pl6Jm-2" target="H91ZjJcy0l4oga8pl6Jm-3" edge="1">
                    <mxGeometry relative="1" as="geometry">
                        <Array as="points">
                            <mxPoint x="260" y="80"/>
                            <mxPoint x="260" y="140"/>
                            <mxPoint x="85" y="140"/>
                        </Array>
                    </mxGeometry>
                </mxCell>
                <mxCell id="H91ZjJcy0l4oga8pl6Jm-13" style="edgeStyle=orthogonalEdgeStyle;rounded=0;orthogonalLoop=1;jettySize=auto;html=1;exitX=0.75;exitY=1;exitDx=0;exitDy=0;entryX=0.5;entryY=0;entryDx=0;entryDy=0;endArrow=none;endFill=0;" parent="1" source="H91ZjJcy0l4oga8pl6Jm-2" target="H91ZjJcy0l4oga8pl6Jm-7" edge="1">
                    <mxGeometry relative="1" as="geometry">
                        <Array as="points">
                            <mxPoint x="290" y="80"/>
                            <mxPoint x="290" y="140"/>
                            <mxPoint x="475" y="140"/>
                        </Array>
                    </mxGeometry>
                </mxCell>
                <mxCell id="H91ZjJcy0l4oga8pl6Jm-14" style="edgeStyle=orthogonalEdgeStyle;rounded=0;orthogonalLoop=1;jettySize=auto;html=1;exitX=0.5;exitY=1;exitDx=0;exitDy=0;entryX=0.5;entryY=0;entryDx=0;entryDy=0;endArrow=none;endFill=0;" parent="1" source="H91ZjJcy0l4oga8pl6Jm-2" target="H91ZjJcy0l4oga8pl6Jm-4" edge="1">
                    <mxGeometry relative="1" as="geometry">
                        <Array as="points">
                            <mxPoint x="270" y="80"/>
                            <mxPoint x="270" y="150"/>
                            <mxPoint x="215" y="150"/>
                        </Array>
                    </mxGeometry>
                </mxCell>
                <mxCell id="H91ZjJcy0l4oga8pl6Jm-15" style="edgeStyle=orthogonalEdgeStyle;rounded=0;orthogonalLoop=1;jettySize=auto;html=1;exitX=0.5;exitY=1;exitDx=0;exitDy=0;entryX=0.5;entryY=0;entryDx=0;entryDy=0;endArrow=none;endFill=0;" parent="1" source="H91ZjJcy0l4oga8pl6Jm-2" target="H91ZjJcy0l4oga8pl6Jm-6" edge="1">
                    <mxGeometry relative="1" as="geometry">
                        <Array as="points">
                            <mxPoint x="280" y="80"/>
                            <mxPoint x="280" y="150"/>
                            <mxPoint x="345" y="150"/>
                        </Array>
                    </mxGeometry>
                </mxCell>
                <mxCell id="H91ZjJcy0l4oga8pl6Jm-2" value="&lt;font style=&quot;font-size: 14px;&quot;&gt;Connection Types&lt;/font&gt;" style="rounded=0;whiteSpace=wrap;html=1;strokeWidth=1;fillColor=none;fontColor=#000000;" parent="1" vertex="1">
                    <mxGeometry x="225" y="40" width="100" height="40" as="geometry"/>
                </mxCell>
                <mxCell id="H91ZjJcy0l4oga8pl6Jm-3" value="&lt;font style=&quot;font-size: 14px;&quot;&gt;Server-Client&lt;/font&gt;" style="rounded=0;whiteSpace=wrap;html=1;strokeWidth=1;fillColor=none;fontColor=#000000;" parent="1" vertex="1">
                    <mxGeometry x="40" y="200" width="90" height="40" as="geometry"/>
                </mxCell>
                <mxCell id="H91ZjJcy0l4oga8pl6Jm-4" value="&lt;font style=&quot;font-size: 14px;&quot;&gt;Client-Client&lt;/font&gt;" style="rounded=0;whiteSpace=wrap;html=1;strokeWidth=1;fillColor=none;fontColor=#000000;" parent="1" vertex="1">
                    <mxGeometry x="170" y="200" width="90" height="40" as="geometry"/>
                </mxCell>
                <mxCell id="H91ZjJcy0l4oga8pl6Jm-6" value="&lt;span style=&quot;font-size: 14px;&quot;&gt;Open Broadcast&lt;/span&gt;" style="rounded=0;whiteSpace=wrap;html=1;strokeWidth=1;fillColor=none;fontColor=#000000;" parent="1" vertex="1">
                    <mxGeometry x="300" y="200" width="90" height="40" as="geometry"/>
                </mxCell>
                <mxCell id="H91ZjJcy0l4oga8pl6Jm-7" value="&lt;span style=&quot;font-size: 14px;&quot;&gt;Broadcast Group&lt;/span&gt;" style="rounded=0;whiteSpace=wrap;html=1;strokeWidth=1;fillColor=none;fontColor=#000000;" parent="1" vertex="1">
                    <mxGeometry x="430" y="200" width="90" height="40" as="geometry"/>
                </mxCell>
                <mxCell id="H91ZjJcy0l4oga8pl6Jm-16" value="Customizable Protocol Settings" style="swimlane;fontStyle=0;childLayout=stackLayout;horizontal=1;startSize=40;horizontalStack=0;resizeParent=1;resizeParentMax=0;resizeLast=0;collapsible=1;marginBottom=0;whiteSpace=wrap;html=1;" parent="1" vertex="1">
                    <mxGeometry x="600" y="50" width="140" height="190" as="geometry"/>
                </mxCell>
                <mxCell id="H91ZjJcy0l4oga8pl6Jm-17" value="Port" style="text;strokeColor=none;fillColor=none;align=left;verticalAlign=middle;spacingLeft=4;spacingRight=4;overflow=hidden;points=[[0,0.5],[1,0.5]];portConstraint=eastwest;rotatable=0;whiteSpace=wrap;html=1;" parent="H91ZjJcy0l4oga8pl6Jm-16" vertex="1">
                    <mxGeometry y="40" width="140" height="30" as="geometry"/>
                </mxCell>
                <mxCell id="H91ZjJcy0l4oga8pl6Jm-18" value="Charset" style="text;strokeColor=none;fillColor=none;align=left;verticalAlign=middle;spacingLeft=4;spacingRight=4;overflow=hidden;points=[[0,0.5],[1,0.5]];portConstraint=eastwest;rotatable=0;whiteSpace=wrap;html=1;" parent="H91ZjJcy0l4oga8pl6Jm-16" vertex="1">
                    <mxGeometry y="70" width="140" height="30" as="geometry"/>
                </mxCell>
                <mxCell id="H91ZjJcy0l4oga8pl6Jm-19" value="All Max Sizes" style="text;strokeColor=none;fillColor=none;align=left;verticalAlign=middle;spacingLeft=4;spacingRight=4;overflow=hidden;points=[[0,0.5],[1,0.5]];portConstraint=eastwest;rotatable=0;whiteSpace=wrap;html=1;" parent="H91ZjJcy0l4oga8pl6Jm-16" vertex="1">
                    <mxGeometry y="100" width="140" height="30" as="geometry"/>
                </mxCell>
                <mxCell id="H91ZjJcy0l4oga8pl6Jm-20" value="&lt;b&gt;All Defined in the SERVER and sent to clients upon handshake&lt;/b&gt;" style="text;strokeColor=none;fillColor=none;align=left;verticalAlign=middle;spacingLeft=4;spacingRight=4;overflow=hidden;points=[[0,0.5],[1,0.5]];portConstraint=eastwest;rotatable=0;whiteSpace=wrap;html=1;" parent="H91ZjJcy0l4oga8pl6Jm-16" vertex="1">
                    <mxGeometry y="130" width="140" height="60" as="geometry"/>
                </mxCell>
            </root>
        </mxGraphModel>
    </diagram>
</mxfile>